<svg version="1.1" id="Layer_1" xmlns="http://www.w3.org/2000/svg" xmlns:xlink="http://www.w3.org/1999/xlink" x="0px" y="0px"
	 width="100%" viewBox="0 0 1024 1024" enable-background="new 0 0 1024 1024" xml:space="preserve">
<path fill="#000000" opacity="1.000000" stroke="none" 
	d="
M198.838470,551.000000 
	C198.846527,512.168091 198.868713,473.836182 198.861404,435.504272 
	C198.839813,322.194641 198.790894,208.885010 198.851913,95.575447 
	C198.853775,92.108772 196.975021,87.454475 200.792953,85.395470 
	C204.957901,83.149323 207.721634,87.640015 210.596161,89.750305 
	C255.985580,123.072266 301.290283,156.509857 346.541931,190.018784 
	C349.912689,192.514816 353.221558,193.778824 357.500214,193.774551 
	C461.497314,193.670609 565.494568,193.668320 669.491760,193.765488 
	C673.936157,193.769653 677.343384,192.426559 680.870361,189.815445 
	C726.654541,155.920166 772.539734,122.161385 818.402039,88.371567 
	C818.938110,87.976616 819.499390,87.614265 820.061462,87.256454 
	C821.987366,86.030495 823.812683,83.927956 826.332825,85.181877 
	C828.909668,86.463982 828.263245,89.198257 828.260925,91.461525 
	C828.186646,164.958374 828.133423,238.455322 827.963806,311.951996 
	C827.901123,339.111115 827.388367,366.269470 827.368652,393.428375 
	C827.301392,485.884766 827.353271,578.341248 827.398132,670.797729 
	C827.400696,676.119751 827.784485,681.440674 827.916138,686.763916 
	C828.013062,690.683777 826.357666,693.714233 823.379639,696.317261 
	C800.665955,716.171021 778.934082,737.077515 757.362671,758.153442 
	C708.262695,806.125732 659.159485,854.094727 610.066589,902.074280 
	C602.916077,909.062683 595.769714,916.056519 588.703003,923.129456 
	C579.657043,932.183228 568.734375,936.933960 555.997131,937.001892 
	C527.332214,937.154724 498.665344,937.195862 470.000854,937.023132 
	C458.213013,936.952087 447.948700,932.721069 439.401276,924.346558 
	C407.861359,893.444702 376.261047,862.604431 344.648743,831.776611 
	C311.843994,799.785889 279.083282,767.749329 246.132019,735.910034 
	C232.235550,722.482483 217.991333,709.409058 203.702499,696.397156 
	C200.000900,693.026306 198.790787,689.296021 198.800552,684.493469 
	C198.890564,640.162476 198.845154,595.831177 198.838470,551.000000 
M765.513000,539.089783 
	C763.426392,540.464600 761.347412,541.851135 759.252014,543.212341 
	C737.170105,557.557312 713.046143,566.271057 686.774658,568.096191 
	C652.816772,570.455322 621.266052,562.591553 592.758301,543.703186 
	C589.096680,541.277100 586.955505,541.524414 583.966919,544.641968 
	C567.824829,561.480591 551.620117,578.265137 535.111572,594.742310 
	C530.848633,598.997253 529.259094,603.348450 529.268555,609.276611 
	C529.421021,704.438660 529.381714,799.601013 529.389343,894.763306 
	C529.389465,896.096191 529.417725,897.429443 529.457153,898.761841 
	C529.564575,902.390381 531.213257,904.180664 535.070374,904.045959 
	C540.730042,903.848206 546.420105,903.653687 552.061401,904.015320 
	C559.135864,904.468933 564.544861,901.722534 569.415833,896.889893 
	C582.190979,884.215271 595.139893,871.716125 607.973206,859.099792 
	C639.930786,827.682495 671.775574,796.149780 703.830505,764.832214 
	C732.664246,736.661682 761.683105,708.680054 790.724915,680.723816 
	C793.735413,677.825867 794.954041,674.833435 794.943054,670.659607 
	C794.811340,620.495483 794.850403,570.330872 794.796814,520.166504 
	C794.794800,518.306641 795.485596,516.113586 792.801147,514.377075 
	C784.084595,522.571960 776.052917,531.717224 765.513000,539.089783 
M454.044434,893.461365 
	C461.000488,902.524292 470.219604,905.592712 481.338562,903.999329 
	C483.950043,903.625122 486.662018,903.981079 489.326996,903.945862 
	C496.789062,903.847168 496.875610,903.835876 496.882355,896.521118 
	C496.918243,857.527710 496.910553,818.534241 496.911438,779.540833 
	C496.912781,721.883606 496.872498,664.226379 496.979248,606.569336 
	C496.987244,602.235596 495.646484,599.123596 492.601440,596.032593 
	C476.349548,579.535522 460.318787,562.820679 444.199097,546.193176 
	C438.670776,540.490723 438.717072,540.607605 431.977539,544.793640 
	C400.675781,564.235474 366.699158,571.985535 330.162689,566.995544 
	C293.800629,562.029358 263.382019,545.273254 238.098206,518.878479 
	C236.680923,517.398865 235.710953,515.183838 232.891525,515.120544 
	C231.544891,517.711975 231.663376,520.599060 231.662521,523.320251 
	C231.656708,541.808533 231.865036,560.296753 231.901077,578.785156 
	C231.961105,609.590393 231.982681,640.395935 231.908661,671.200989 
	C231.899673,674.940186 232.919800,677.692017 235.722321,680.401367 
	C269.496155,713.053040 303.185699,745.792358 336.791565,778.617004 
	C375.759308,816.678894 414.622070,854.848206 454.044434,893.461365 
M493.631348,467.001221 
	C488.160645,483.667725 479.381561,498.509338 468.611603,512.240601 
	C464.073090,518.026978 463.866760,518.477478 469.052582,523.941528 
	C482.586914,538.202148 496.391937,552.206848 509.853485,566.534912 
	C513.085693,569.975159 515.047241,569.216736 517.827698,566.271484 
	C531.093750,552.219482 544.496582,538.296753 557.826355,524.304810 
	C562.898193,518.981018 562.780151,518.555481 558.095398,512.711487 
	C538.150513,487.831055 526.411194,459.376312 524.062622,427.708252 
	C520.949097,385.725342 533.363525,348.067993 561.233704,316.539764 
	C597.737915,275.244263 643.899231,257.638947 698.771423,265.607269 
	C734.365173,270.776062 763.885498,288.104553 788.623352,313.928772 
	C790.030029,315.397186 791.027771,317.611664 793.546753,317.700500 
	C795.627808,312.519592 795.403015,154.163788 793.298096,150.473801 
	C790.667664,150.686722 788.819214,152.462128 786.827209,153.903442 
	C754.970459,176.952759 723.083435,199.960785 691.330688,223.152557 
	C687.296692,226.098938 683.217224,227.105164 678.351501,227.101379 
	C567.853516,227.015442 457.355408,227.018524 346.857361,227.081100 
	C343.172760,227.083191 340.138702,226.185547 337.145447,224.009048 
	C311.677917,205.490555 286.135559,187.074936 260.605377,168.642654 
	C253.041122,163.181412 245.461319,157.741196 237.846130,152.351410 
	C236.554810,151.437469 235.229736,149.890579 233.407364,150.905716 
	C231.849579,151.773438 232.299194,153.541473 232.192703,154.997513 
	C232.132034,155.827042 232.155975,156.663376 232.156265,157.496643 
	C232.174210,208.995224 232.188965,260.493805 232.233200,311.992340 
	C232.234695,313.738434 231.695740,315.705872 233.757065,317.218567 
	C236.576279,316.112732 238.226685,313.500275 240.285614,311.441864 
	C275.877716,275.858856 318.532471,258.810059 368.831787,264.873047 
	C416.265198,270.590546 453.663025,294.385834 479.065033,334.641846 
	C504.947296,375.658844 510.329315,419.981964 493.631348,467.001221 
M469.319122,425.885315 
	C470.104004,417.892395 469.786011,409.938721 468.834656,401.964691 
	C465.531189,374.276459 454.096436,350.302582 433.997894,331.244110 
	C404.049683,302.845673 368.150421,292.660034 327.542206,300.377319 
	C262.172913,312.800354 226.319336,370.618744 232.171722,427.377289 
	C235.811584,462.677795 251.593033,491.407928 280.468445,511.813599 
	C320.686707,540.234985 363.872040,543.128418 407.262177,520.263733 
	C444.326660,500.732361 464.304077,468.394440 469.319122,425.885315 
M772.645142,485.160217 
	C784.483093,467.803101 792.069458,448.892578 794.011536,427.816895 
	C797.175598,393.480591 787.810974,362.868835 764.689575,337.504089 
	C739.990967,310.409119 708.709290,297.057831 671.656250,298.134247 
	C635.926941,299.172211 606.135254,313.320526 583.755249,340.781616 
	C558.273621,372.048584 550.928406,408.106750 561.062805,447.338226 
	C573.505066,495.503479 617.145996,531.760681 666.823975,534.609436 
	C710.472900,537.112549 745.601501,520.389038 772.645142,485.160217 
z"/>
<path fill="#000000" opacity="1.000000" stroke="none" 
	d="
M312.495911,392.612488 
	C322.674957,376.492462 341.554657,368.306915 359.665802,371.927856 
	C377.119995,375.417419 391.708252,390.344360 394.945831,408.026886 
	C399.326874,431.955048 383.270935,455.085541 358.952057,459.880096 
	C335.490173,464.505646 312.346680,449.414917 307.032959,426.091522 
	C304.348389,414.308136 306.425476,403.327362 312.495911,392.612488 
z"/>
<path fill="#000000" opacity="1.000000" stroke="none" 
	d="
M633.435852,431.362244 
	C623.398132,403.535034 642.206665,374.826874 671.215149,371.395538 
	C692.559937,368.870728 718.872437,384.572906 720.658936,413.406769 
	C722.276062,439.507355 702.203857,459.156281 679.223083,460.255585 
	C657.093567,461.314178 641.453308,451.241425 633.435852,431.362244 
z"/>
</svg>